<?xml version="1.0" standalone="no"?>
<!DOCTYPE svg PUBLIC "-//W3C//DTD SVG 20010904//EN"
 "http://www.w3.org/TR/2001/REC-SVG-20010904/DTD/svg10.dtd">
<svg version="1.0" xmlns="http://www.w3.org/2000/svg"
 width="788.000000pt" height="788.000000pt" viewBox="0 0 788.000000 788.000000"
 preserveAspectRatio="xMidYMid meet">
<metadata>
Created by potrace 1.14, written by Peter Selinger 2001-2017
</metadata>
<g transform="translate(0.000000,788.000000) scale(0.100000,-0.100000)"
fill="#000000" stroke="none">
<path d="M0 3951 l0 -3729 113 -2 c61 -1 118 -2 125 -1 6 1 18 1 25 2 6 1 59
1 117 0 58 0 155 -1 215 -2 61 -1 117 -1 125 0 8 0 62 0 120 0 58 -1 112 -1
120 0 8 0 62 0 120 0 58 -1 112 -1 120 0 8 0 62 0 120 0 58 -1 112 -1 120 0 8
0 62 0 120 0 58 -1 112 -1 120 0 8 0 62 0 120 0 58 -1 112 -1 120 0 8 0 62 0
120 0 58 -1 112 -1 120 0 8 0 62 0 120 0 58 -1 112 -1 120 0 8 0 62 0 120 0
58 -1 112 -1 120 0 8 0 62 0 120 0 58 -1 112 -1 120 0 8 0 62 0 120 0 58 -1
112 -1 120 0 8 0 62 0 120 0 58 -1 112 -1 120 0 8 0 62 0 120 0 58 -1 112 -1
120 0 8 0 62 0 120 0 58 -1 112 -1 120 0 8 0 62 0 120 0 58 -1 112 -1 120 0 8
0 62 0 120 0 58 -1 112 -1 120 0 8 0 62 0 120 0 58 -1 112 -1 120 0 8 0 62 0
120 0 58 -1 112 -1 120 0 8 0 62 0 120 0 58 -1 111 -1 118 0 44 3 147 3 437 0
61 -1 117 -1 125 0 8 0 62 0 120 0 58 -1 112 -1 120 0 8 0 62 0 120 0 58 -1
112 -1 120 0 8 0 62 0 120 0 58 -1 112 -1 120 0 8 0 62 0 120 0 58 -1 112 -1
120 0 8 0 62 0 120 0 58 -1 112 -1 120 0 8 0 62 0 120 0 58 -1 112 -1 120 0 8
0 62 0 120 0 58 -1 112 -1 120 0 8 0 62 0 120 0 58 -1 112 -1 120 0 8 0 62 0
120 0 58 -1 112 -1 120 0 8 1 34 1 57 1 l42 -1 2 3553 c0 1954 0 3560 0 3568
0 8 0 88 0 178 l0 162 -3931 0 -3930 0 0 -3729z"/>
</g>
</svg>
